<?xml version="1.0" encoding="UTF-8"?>
<svg xmlns="http://www.w3.org/2000/svg" height="16px" viewBox="0 0 16 16" width="16px"><path d="m -12 0.5 c -4.117188 0 -7.5 3.382812 -7.5 7.5 s 3.382812 7.5 7.5 7.5 c 4.117187 0 7.5 -3.382812 7.5 -7.5 s -3.382813 -7.5 -7.5 -7.5 z m 0 0" fill="none" stroke="#2e3436" stroke-opacity="0.25"/><path d="m -7 8 c 0 2.761719 -2.238282 5 -5 5 c -2.761719 0 -5 -2.238281 -5 -5 s 2.238281 -5 5 -5 c 2.761718 0 5 2.238281 5 5 z m 0 0" fill="none" stroke="#2e3436" stroke-linecap="round" stroke-opacity="0.5" stroke-width="2"/><path d="m 10.996094 2 c -0.554688 0 -1 0.445312 -1 1 v 3 c 0 0.554688 0.445312 1 1 1 h 0.710937 c -0.671875 2.265625 -2.445312 4.042969 -4.710937 4.710938 v -0.710938 c 0 -0.554688 -0.449219 -1 -1 -1 h -3 c -0.554688 0 -1 0.445312 -1 1 v 1.5 c 0 1.378906 1.117187 2.5 2.5 2.5 h 0.5 c 5.503906 0 10 -4.496094 10 -10 v -0.5 c 0 -1.378906 -1.121094 -2.5 -2.5 -2.5 z m 0 0" fill="#2e3436"/></svg>
