<svg height="16" width="16" xmlns="http://www.w3.org/2000/svg">
  <path d="M1.957 2.023a.497.497 0 0 0-.344.153l-.238.25C.441 3.395-.023 4.699-.023 6S.44 8.605 1.375 9.574l.238.25a.495.495 0 1 0 .715-.688l-.234-.25c-1.469-1.53-1.469-4.238 0-5.773l.234-.25a.495.495 0 0 0-.371-.84zm12.04 0a.491.491 0 0 0-.356.137.499.499 0 0 0-.016.703l.238.25c1.469 1.535 1.469 4.242 0 5.774l-.238.25a.499.499 0 0 0 .016.703c.199.187.511.183.703-.016l.238-.25c.93-.969 1.395-2.273 1.395-3.574s-.465-2.605-1.395-3.574l-.238-.25a.499.499 0 0 0-.348-.153zM3.456 3.516a.484.484 0 0 0-.312.129l-.274.25c-.613.554-.906 1.343-.902 2.125.008.777.312 1.55.902 2.085l.274.25a.496.496 0 1 0 .668-.734l-.27-.246c-.7-.637-.746-2.07 0-2.75l.27-.246a.496.496 0 0 0-.356-.863zm8.992 0a.49.49 0 0 0-.344.16.5.5 0 0 0 .036.703l.273.246c.742.68.695 2.113 0 2.75l-.273.246a.5.5 0 0 0-.036.703.5.5 0 0 0 .708.031l.269-.25c.59-.535.895-1.308.902-2.085.008-.782-.289-1.57-.902-2.125l-.27-.25a.508.508 0 0 0-.363-.13zM4.75 5a.75.75 0 0 0-.586 1.219L7 9.762V16h2V9.762l2.836-3.543A.75.75 0 0 0 11.25 5zm1.563 1.5h3.375L8 8.613zm0 0" fill="#2e3436"/>
</svg>
