<?xml version="1.0" encoding="UTF-8"?>
<svg xmlns="http://www.w3.org/2000/svg" height="16px" viewBox="0 0 16 16" width="16px"><g fill="#222222"><path d="m 5.941406 5.113281 v 5.773438 h 0.578125 c 0.101563 0 0.199219 -0.023438 0.289063 -0.074219 l 4.039062 -2.308594 c 0.175782 -0.097656 0.269532 -0.300781 0.269532 -0.503906 s -0.09375 -0.40625 -0.269532 -0.503906 l -4.039062 -2.308594 c -0.089844 -0.050781 -0.1875 -0.074219 -0.289063 -0.074219 z m 0 0"/><path d="m 7.941406 0 c -4.40625 0 -7.9960935 3.59375 -7.9960935 8 s 3.5898435 8 7.9960935 8 s 7.996094 -3.59375 7.996094 -8 s -3.589844 -8 -7.996094 -8 z m 0 2 c 3.324219 0 5.996094 2.675781 5.996094 6 s -2.671875 6 -5.996094 6 c -3.324218 0 -5.996094 -2.675781 -5.996094 -6 s 2.671876 -6 5.996094 -6 z m 0 0"/></g></svg>
