<svg height="16" width="16" xmlns="http://www.w3.org/2000/svg">
  <path d="M1.96 0S1 1 1 2v12c0 1-1 2-1 2h1s.42-.43.71-1h1c-.3.57-.71 1-.71 1h1s1-1.02 1-2v-2h1v-1H4V6h8v1h3V2c0-1 .96-2 .96-2h-3S12 1 12 2v3H4V2c0-1 .96-2 .96-2zm.32 1h1c-.15.3-.28.65-.28 1H2c0-.35.13-.7.28-1zm11 0h1c-.15.3-.28.65-.28 1h-1c0-.35.12-.7.28-1zM2 3h1v1H2zm11 0h1v1h-1zM2 5h1v1H2zm11 0h1v1h-1zM2 7h1v1H2zm7 1v4.28A1.98 1.98 0 0 0 6 14a2 2 0 1 0 4 0V9h4v3.28A1.98 1.98 0 0 0 11 14a2 2 0 1 0 4 0V8zM2 9h1v1H2zm0 2h1v1H2zm0 2h1v1H2zm0 0" fill="#666666"/>
</svg>
