<?xml version="1.0" encoding="UTF-8"?>
<svg height="16px" viewBox="0 0 16 16" width="16px" xmlns="http://www.w3.org/2000/svg">
    <path d="m 4.507812 0 c -1.371093 0 -2.5 1.132812 -2.5 2.5 v 6 c 0 1.367188 1.128907 2.5 2.5 2.5 h 2.492188 v 1.269531 c -0.289062 0.164063 -0.535156 0.40625 -0.714844 0.703125 h -3.285156 c -0.550781 0 -1 0.449219 -1 1 c 0 0.550782 0.449219 1 1 1 h 3.25 c 0.351562 0.640625 1.019531 1.035156 1.75 1.039063 c 0.730469 -0.003907 1.398438 -0.398438 1.75 -1.039063 h 3.261719 c 0.550781 0 1 -0.449218 1 -1 c 0 -0.550781 -0.449219 -1 -1 -1 h -3.292969 c -0.175781 -0.296875 -0.425781 -0.535156 -0.710938 -0.703125 v -1.269531 h 2.5 c 1.367188 0 2.5 -1.132812 2.5 -2.5 v -6 c 0 -1.367188 -1.132812 -2.5 -2.5 -2.5 z m 0 2 h 7 c 0.292969 0 0.5 0.207031 0.5 0.5 v 5 c 0 0.292969 -0.207031 0.5 -0.5 0.5 h -7 c -0.296874 0 -0.5 -0.207031 -0.5 -0.5 v -5 c 0 -0.292969 0.203126 -0.5 0.5 -0.5 z m 3.492188 11 c 0.554688 0 1.007812 0.449219 1.007812 1.007812 c 0 0.554688 -0.453124 1.003907 -1.007812 1.003907 s -1.007812 -0.449219 -1.007812 -1.003907 c 0 -0.558593 0.453124 -1.007812 1.007812 -1.007812 z m 0 0" fill="#222222"/>
</svg>
