<svg xmlns="http://www.w3.org/2000/svg" width="16.156" height="16">
    <g fill="#2e3436">
        <path d="M4.353 0a2.217 2.217 0 0 0-2.197 2.201v1.807h2V2.2c0-.13.074-.201.197-.201h.803v.25c0 .415.335.75.75.75h4.5c.416 0 .75-.335.75-.75V2h.805c.124 0 .195.07.195.201v9.61c0 .13-.071.2-.195.2L2.156 12v1.799c0 1.2.996 2.201 2.197 2.201h7.608a2.215 2.215 0 0 0 2.195-2.201V2.2c0-1.2-.994-2.201-2.195-2.201zm3.803 12.902c.552 0 1 .382 1 .934a1 1 0 0 1-2 0c0-.552.448-.934 1-.934z" style="line-height:normal;font-variant-ligatures:normal;font-variant-position:normal;font-variant-caps:normal;font-variant-numeric:normal;font-variant-alternates:normal;font-feature-settings:normal;text-indent:0;text-align:start;text-decoration-line:none;text-decoration-style:solid;text-decoration-color:#000;text-transform:none;text-orientation:mixed;white-space:normal;shape-padding:0;isolation:auto;mix-blend-mode:normal;solid-color:#000;solid-opacity:1;marker:none" color="#bebebe" font-weight="400" font-family="sans-serif" overflow="visible"/>
        <path d="M2.781 4.438c-.23.047-.444.13-.656.218-.017.625.087 1.442-.156 1.657-.24.21-1.039.034-1.657-.032a3.627 3.627 0 0 0-.312.75c.478.396 1.14.84 1.156 1.156.016.322-.626.805-1.062 1.25.103.258.25.494.406.72.608-.127 1.366-.374 1.625-.188.263.19.265 1.005.344 1.625.25.075.512.104.781.125.281-.555.567-1.32.875-1.407.316-.088.964.459 1.5.782.219-.152.413-.337.594-.532-.254-.572-.721-1.291-.594-1.593.127-.302.975-.47 1.563-.688.004-.073.03-.144.03-.219 0-.19-.034-.378-.062-.562-.606-.16-1.467-.241-1.625-.531-.157-.288.242-1.062.438-1.657a3.687 3.687 0 0 0-.657-.468c-.5.375-1.084.994-1.406.937-.317-.056-.663-.82-1-1.344-.04.007-.085-.008-.125 0zm.625 1.875a1.688 1.688 0 1 1 0 3.375 1.688 1.688 0 0 1 0-3.375z" style="marker:none" color="#000" overflow="visible"/>
    </g>
</svg>
