<svg xmlns="http://www.w3.org/2000/svg" width="16" height="16">
    <path d="M4.197 0A2.217 2.217 0 0 0 2 2.201V13.8C2 14.999 2.995 16 4.197 16h7.607A2.215 2.215 0 0 0 14 13.799V2.2C14 1.001 13.006 0 11.804 0zm0 2H5v.25c0 .415.334.75.75.75h4.5c.415 0 .75-.335.75-.75V2h.804c.124 0 .196.07.196.201v9.543c0 .131-.072.201-.196.201H4.197c-.124 0-.197-.07-.197-.2V2.2c0-.13.073-.201.197-.201zM8 12.836a1 1 0 0 1 1 1 1 1 0 0 1-1 1 1 1 0 0 1-1-1 1 1 0 0 1 1-1z" style="line-height:normal;font-variant-ligatures:normal;font-variant-position:normal;font-variant-caps:normal;font-variant-numeric:normal;font-variant-alternates:normal;font-feature-settings:normal;text-indent:0;text-align:start;text-decoration-line:none;text-decoration-style:solid;text-decoration-color:#000;text-transform:none;text-orientation:mixed;white-space:normal;shape-padding:0;isolation:auto;mix-blend-mode:normal;solid-color:#000;solid-opacity:1;marker:none" color="#bebebe" font-weight="400" font-family="sans-serif" overflow="visible" fill="#2e3436"/>
</svg>
