<svg xmlns="http://www.w3.org/2000/svg" width="16" height="16"><g fill="#2e3436"><path d="M4 3C2.338 3 1 4.338 1 6v7c0 1.662 1.338 3 3 3h8c1.662 0 3-1.338 3-3V6c0-1.662-1.338-3-3-3zm.5 1h7S13 5 13 8s-1.5 4-1.5 4h-7S3 11 3 8s1.5-4 1.5-4zM11 14h1v1h-1z"/><path d="M6 1a1 1 0 01-1 1 1 1 0 01-1-1 1 1 0 011-1 1 1 0 011 1zM11.988 1a1 1 0 01-1 1 1 1 0 01-1-1 1 1 0 011-1 1 1 0 011 1z" color="#000"/><path d="M5.355.648l-.71.704 2.618 2.654 1.508-.024 2.586-2.632-.713-.7-2.299 2.34-.67.01z" color="#000"/></g></svg>
