<svg xmlns="http://www.w3.org/2000/svg" width="16" height="16" viewBox="0 0 4.233 4.233"><path d="M3.084.408c-.045.005-.166.031-.27.057L2.43.567 2.066.66l-.374.098-.73.19c-.418.107-.492.128-.588.172-.262.119-.378.294-.374.564.002.12.019.207.096.495.034.13.08.3.099.38l.055.209.133.511c.068.267.225.454.433.518.15.047.292.04.54-.028a51.076 51.076 0 01.567-.149 341.177 341.177 0 001.445-.375l.253-.066c.135-.035.204-.058.26-.087a.635.635 0 00.332-.39c.03-.102.026-.31-.01-.446-.09-.336-.1-.376-.178-.677-.2-.764-.193-.742-.228-.82a.587.587 0 00-.334-.313 1.122 1.122 0 00-.28-.049l-.1.011zm.459.74c.012.016.03.06.04.098.008.038.039.156.066.262.028.105.051.203.051.216 0 .053-.042.08-.193.118l-.297.078c-.323.085-.31.083-.346.07-.052-.018-.06-.039-.16-.433-.04-.156-.04-.193-.009-.228.019-.022.043-.028.35-.109.121-.03.262-.068.314-.082.108-.029.15-.027.184.01zm-2.09.134c.02.016.04.05.05.08.018.055.08.29.095.355.004.02.022.087.037.146.033.125.036.164.01.206-.025.043-.062.06-.214.099l-.259.067a7.036 7.036 0 01-.168.043 6.39 6.39 0 00-.166.043c-.169.045-.208.045-.258-.002a.184.184 0 01-.056-.102L.457 1.96c-.076-.292-.08-.31-.08-.352 0-.05.032-.103.072-.12.018-.006.082-.025.142-.04l.655-.17c.107-.03.167-.028.208.005zm1.133.332a.193.193 0 01.01.073c-.003.01-.032.018-.081.022-.041.003-.162.016-.268.03-.38.044-.486.055-.494.05a.372.372 0 01-.03-.134c.003-.004.197-.029.47-.06.057-.007.156-.018.22-.027.16-.02.155-.02.173.046zm.245.498c.027.01.051.018.052.02.003 0-.068.11-.157.244l-.162.243-.03-.02a.222.222 0 00-.063-.03c-.02-.003-.037-.01-.037-.014s.07-.112.157-.242c.12-.18.16-.232.172-.227.01.005.04.016.068.026zm-1.183.195c.107.097.357.346.357.355 0 .01-.136.05-.152.043A6.309 6.309 0 011.44 2.3c.004-.004.123-.04.147-.044.003 0 .03.022.06.05zm.827.423c.008.016.033.104.057.196.05.192.048.203-.043.22-.027.006-.125.03-.219.055-.214.057-.246.063-.261.043a.756.756 0 01-.048-.14c-.054-.201-.061-.242-.048-.263a.312.312 0 01.11-.044c.054-.013.163-.041.24-.062.167-.044.193-.044.212-.005z"/></svg>
