<svg xmlns="http://www.w3.org/2000/svg" width="16" height="16">
    <g fill="#2e3436">
        <path d="M4 1C2.338 1 1 2.338 1 4v1h2V4c0-.554.446-1 1-1h8c.554 0 1 .446 1 1v6c0 .554-.446 1-1 1H9v2h3c1.662 0 3-1.338 3-3V4c0-1.662-1.338-3-3-3zm5 13.025V16h3c1 0 1-1 1-1s-.053-.845-4-.975z"/>
        <path d="M2.28 6C1.57 6 1 6.571 1 7.281v7.438C1 15.429 1.57 16 2.28 16h4.438C7.428 16 8 15.429 8 14.719V7.28C8 6.571 7.428 6 6.718 6H4zm.13 1H3c0 .554.446 1 1 1h1c.554 0 1-.446 1-1h.59c.227 0 .41.182.41.41v6.163c0 .228-.183.41-.41.41H2.41a.409.409 0 0 1-.41-.41V7.41c0-.228.182-.41.41-.41z" style="marker:none"/>
    </g>
</svg>
