<svg xmlns="http://www.w3.org/2000/svg" width="16" height="16">
    <g fill="#2e3436">
        <path d="M4.06 1l2 2H12c.554 0 1 .446 1 1v5.938l1.578 1.578A2.98 2.98 0 0 0 15 10V4c0-1.662-1.338-3-3-3zm-1.656.467A2.984 2.984 0 0 0 1 4v1h2V4c0-.535.419-.962.947-.99zM9 11v2h3c.556 0 1.07-.16 1.515-.422L11.937 11zm0 3.025V16h3c1 0 1-1 1-1s-.053-.845-4-.975z"/>
        <path style="marker:none" d="M2.28 6C1.57 6 1 6.571 1 7.281v7.438C1 15.429 1.57 16 2.28 16h4.438C7.428 16 8 15.429 8 14.719V7.28L6.718 6H4zm.13 1H3c0 .554.446 1 1 1h1c.554 0 1-.446 1-1h.59c.227 0 .41.182.41.41v6.163c0 .228-.183.41-.41.41H2.41a.409.409 0 0 1-.41-.41V7.41c0-.228.182-.41.41-.41z" opacity=".5"/>
        <path d="M1.499.501L.438 1.562l14 14L15.5 14.5z"/>
    </g>
</svg>
